<?xml version="1.0" encoding="iso-8859-1"?>
<!-- Generator: Adobe Illustrator 19.0.0, SVG Export Plug-In . SVG Version: 6.00 Build 0)  -->
<svg version="1.1" id="Capa_1" xmlns="http://www.w3.org/2000/svg" xmlns:xlink="http://www.w3.org/1999/xlink" x="0px" y="0px"
	 viewBox="0 0 512 512" style="enable-background:new 0 0 512 512;" xml:space="preserve">
<g>
	<g>
		<path d="M487.361,231.36h-49.89c-3.191-38.955-18.698-74.472-42.608-102.65l35.339-35.34c5.857-5.858,5.857-15.355,0-21.213
			c-5.858-5.857-15.355-5.858-21.213,0.001l-35.339,35.34C345.472,83.587,309.955,68.081,271,64.89V15c0-8.284-6.716-15-15-15
			s-15,6.716-15,15v49.889c-38.955,3.191-74.472,18.698-102.65,42.608l-35.34-35.339c-5.857-5.858-15.355-5.858-21.213,0
			c-5.858,5.858-5.858,15.355,0,21.213l35.339,35.339c-23.91,28.179-39.417,63.695-42.608,102.65H24.639c-8.284,0-15,6.716-15,15
			s6.716,15,15,15h49.886c2.468,30.171,12.362,59.146,28.995,84.567c4.156,6.352,8.688,12.405,13.553,18.147L81.797,399.35
			c-5.857,5.858-5.857,15.355,0,21.213c2.929,2.929,6.768,4.393,10.606,4.393c3.839,0,7.678-1.464,10.607-4.393l35.27-35.27
			c10.15,8.606,21.237,16.103,33.098,22.333V497c0,8.284,6.716,15,15,15h139.244c8.284,0,15-6.716,15-15v-89.373
			c11.86-6.23,22.946-13.727,33.096-22.333l35.27,35.27c2.93,2.929,6.768,4.393,10.607,4.393c3.838,0,7.678-1.465,10.607-4.393
			c5.858-5.858,5.858-15.355,0-21.213l-35.276-35.277c4.865-5.742,9.397-11.796,13.553-18.147
			c16.633-25.421,26.526-54.396,28.995-84.567h49.887c8.284,0,15-6.716,15-15S495.645,231.36,487.361,231.36z M310.622,482H201.378
			v-68.707h109.244V482z M322.205,383.293h-51.206V320.96l37.38-37.38c5.858-5.858,5.858-15.355,0-21.213
			c-5.857-5.858-15.355-5.858-21.213,0l-31.167,31.166l-31.167-31.166c-5.857-5.858-15.355-5.858-21.213,0
			c-5.858,5.858-5.858,15.355,0,21.213l37.38,37.38v62.333h-51.204c-52.273-25.324-85.889-78.711-85.889-136.933
			c0-83.865,68.229-152.094,152.093-152.094c83.865,0,152.094,68.229,152.094,152.094
			C408.093,304.582,374.478,357.969,322.205,383.293z"/>
	</g>
</g>
<g>
</g>
<g>
</g>
<g>
</g>
<g>
</g>
<g>
</g>
<g>
</g>
<g>
</g>
<g>
</g>
<g>
</g>
<g>
</g>
<g>
</g>
<g>
</g>
<g>
</g>
<g>
</g>
<g>
</g>
</svg>
