<?xml version="1.0" encoding="iso-8859-1"?>
<!-- Generator: Adobe Illustrator 19.0.0, SVG Export Plug-In . SVG Version: 6.00 Build 0)  -->
<svg version="1.1" id="Layer_1" xmlns="http://www.w3.org/2000/svg" xmlns:xlink="http://www.w3.org/1999/xlink" x="0px" y="0px"
	 viewBox="0 0 512 512" style="enable-background:new 0 0 512 512;" xml:space="preserve">
<g>
	<g>
		<g>
			<circle cx="105.084" cy="334.431" r="10.947"/>
			<circle cx="17.402" cy="253.552" r="10.947"/>
			<circle cx="29.744" cy="406.29" r="10.947"/>
			<circle cx="110.558" cy="459.1" r="10.947"/>
			<circle cx="415.541" cy="470.047" r="10.947"/>
			<circle cx="467.639" cy="379.513" r="10.947"/>
			<circle cx="343.091" cy="101.471" r="10.947"/>
			<circle cx="250.443" cy="21.895" r="10.947"/>
			<circle cx="437.435" cy="47.696" r="10.947"/>
			<path d="M154.727,220.887l52.912,38.443c4.761,3.459,10.217,5.188,15.674,5.188c5.456,0,10.913-1.73,15.674-5.189
				c9.522-6.918,13.324-18.621,9.688-29.815l-20.211-62.202l52.912-38.443c9.522-6.918,13.324-18.621,9.687-29.815
				c-3.637-11.194-13.592-18.427-25.362-18.427H200.3l-20.21-62.202C176.451,7.233,166.497,0,154.726,0
				c-11.77,0-21.725,7.233-25.362,18.427l-20.211,62.202H43.751c-11.77,0-21.725,7.233-25.362,18.427
				c-3.637,11.194,0.165,22.898,9.687,29.815l52.912,38.443l-20.211,62.202c-3.637,11.194,0.166,22.896,9.688,29.814
				s21.827,6.918,31.35,0L154.727,220.887z M83.335,241.617c-1.048-0.761-2.667-2.466-1.734-5.336l22.669-69.767
				c1.465-4.511-0.14-9.452-3.977-12.24l-59.347-43.117c-2.441-1.773-2.134-4.104-1.734-5.337c0.401-1.232,1.523-3.297,4.539-3.297
				h73.356c4.744,0,8.946-3.054,10.412-7.565l22.669-69.767c0.933-2.869,3.244-3.298,4.539-3.298c1.295,0,3.607,0.429,4.539,3.298
				l22.669,69.767c1.466,4.51,5.67,7.565,10.412,7.565h73.356c3.017,0,4.139,2.066,4.539,3.297c0.4,1.232,0.707,3.563-1.734,5.337
				l-59.347,43.117c-3.837,2.787-5.442,7.729-3.977,12.24l22.669,69.767c0.933,2.869-0.686,4.575-1.734,5.337
				c-1.048,0.761-3.17,1.773-5.611,0L161.161,198.5c-1.919-1.394-4.176-2.091-6.435-2.091c-2.258,0-4.516,0.697-6.435,2.091
				l-59.347,43.118C86.506,243.392,84.381,242.378,83.335,241.617z"/>
			<path d="M350.938,363.58H301.6l-15.246-46.923c-3.168-9.749-11.837-16.048-22.087-16.048c-10.25,0-18.92,6.299-22.089,16.048
				l-15.246,46.923h-49.337c-10.25,0-18.92,6.299-22.087,16.048c-3.168,9.749,0.143,19.941,8.437,25.966l39.914,29l-15.246,46.923
				c-3.167,9.749,0.145,19.941,8.438,25.966c4.146,3.013,8.898,4.518,13.65,4.518c4.752,0,9.505-1.506,13.651-4.518l39.914-29
				l39.914,29c8.293,6.024,19.009,6.024,27.302,0c8.293-6.024,11.605-16.216,8.438-25.966l-15.246-46.922l39.914-29
				c8.293-6.025,11.604-16.217,8.437-25.966C369.857,369.879,361.188,363.58,350.938,363.58z M351.718,387.88l-46.349,33.675
				c-3.837,2.787-5.442,7.73-3.977,12.24l17.704,54.486c0.119,0.366,0.299,0.92-0.483,1.488c-0.783,0.568-1.252,0.226-1.563,0
				l-46.349-33.675c-1.918-1.394-4.176-2.091-6.435-2.091s-4.516,0.697-6.435,2.091l-46.349,33.675
				c-0.312,0.226-0.781,0.568-1.563,0c-0.782-0.568-0.602-1.121-0.483-1.487l17.704-54.486c1.465-4.51-0.14-9.452-3.977-12.24
				l-46.349-33.675c-0.311-0.227-0.782-0.568-0.483-1.487c0.299-0.918,0.88-0.918,1.264-0.918h57.291
				c4.742,0,8.946-3.054,10.412-7.565l17.703-54.487c0.119-0.366,0.299-0.918,1.266-0.918c0.966,0,1.146,0.553,1.264,0.918
				l17.704,54.487c1.466,4.51,5.67,7.565,10.412,7.565h57.291c0.385,0,0.966,0,1.264,0.918
				C352.5,387.312,352.03,387.653,351.718,387.88z"/>
			<path d="M504.474,190.77c-2.867-8.825-10.715-14.526-19.993-14.526h-39.059l-12.069-37.149
				c-2.867-8.824-10.715-14.526-19.994-14.526c-9.278,0-17.126,5.701-19.993,14.526l-12.07,37.149h-39.06
				c-9.278,0-17.126,5.701-19.993,14.526c-2.867,8.825,0.13,18.05,7.637,23.504l31.6,22.959l-12.07,37.149
				c-2.867,8.825,0.131,18.05,7.637,23.503c3.753,2.727,8.054,4.09,12.356,4.09c4.301,0,8.604-1.364,12.356-4.09l31.6-22.959
				l31.601,22.959c7.505,5.452,17.206,5.454,24.713,0c7.506-5.453,10.504-14.679,7.637-23.504l-12.069-37.148l31.6-22.959
				C504.342,208.82,507.341,199.594,504.474,190.77z M445.933,224.194c-3.837,2.787-5.442,7.729-3.977,12.24l13.697,42.157
				l-35.861-26.055c-1.918-1.394-4.176-2.091-6.435-2.091c-2.258,0-4.516,0.697-6.435,2.091l-35.861,26.055l13.697-42.157
				c1.465-4.511-0.14-9.452-3.977-12.24l-35.861-26.055h44.328c4.742,0,8.946-3.054,10.412-7.565l13.698-42.158l13.697,42.158
				c1.466,4.51,5.669,7.565,10.412,7.565h44.328L445.933,224.194z"/>
		</g>
	</g>
</g>
<g>
</g>
<g>
</g>
<g>
</g>
<g>
</g>
<g>
</g>
<g>
</g>
<g>
</g>
<g>
</g>
<g>
</g>
<g>
</g>
<g>
</g>
<g>
</g>
<g>
</g>
<g>
</g>
<g>
</g>
</svg>
